<svg width="243" height="185" viewBox="0 0 243 185" fill="none" xmlns="http://www.w3.org/2000/svg">
<mask id="mask0_14_23" style="mask-type:luminance" maskUnits="userSpaceOnUse" x="67" y="93" width="121" height="92">
<path d="M67.0302 93.2292H187.03V185H67.0302V93.2292Z" fill="white"/>
</mask>
<g mask="url(#mask0_14_23)">
<path d="M185.171 168.901C183.942 174.161 183.311 177.359 180.702 180.891C178.957 183.245 176.098 184.594 173.197 184.25C170.66 183.953 168.212 182.875 165.754 181.922C137.301 170.974 114.337 151.688 91.1291 132.755C85.5979 128.245 73.926 117.797 67.2958 112.313C83.4364 100.901 90.1135 93.8438 90.1135 93.8438C116.119 116.422 146.431 142.849 178.072 156.063C183.113 158.167 187.832 157.484 185.171 168.901Z" fill="#0FB1EA"/>
</g>
<mask id="mask1_14_23" style="mask-type:luminance" maskUnits="userSpaceOnUse" x="53" y="0" width="124" height="86">
<path d="M53.6968 0H176.364V85.2292H53.6968V0Z" fill="white"/>
</mask>
<g mask="url(#mask1_14_23)">
<path d="M153.009 84.0625C145.692 78.276 132.89 68.6719 125.655 63.0937C107.291 48.9271 87.702 37.1042 65.2281 30.3646C53.0562 26.7135 51.4573 14.4792 60.6604 3.67708C62.3323 1.70833 64.9468 0.421872 67.4729 0.947913C109.322 9.71354 141.004 35.3594 176.275 67.724C164.343 74.0312 153.015 84.0625 153.015 84.0625" fill="#0FB1EA"/>
</g>
<path d="M127.791 114.437C153.931 87.9844 204.666 56.026 230.265 54.8489C233.254 54.7135 236.093 56.2083 237.666 58.7552C240.181 62.8437 240.999 67.7396 241.759 72.5573C242.478 77.2083 240.056 81.1771 235.645 82.4114C205.077 90.9739 175.379 111.797 151.28 131.672C143.176 127.849 127.791 114.437 127.791 114.437Z" fill="#7CB518"/>
<path d="M113.53 64.3489C83.5093 89.4166 50.9364 119.323 15.7177 130.031C12.7437 130.943 9.46246 130.193 7.32184 127.932C4.44684 124.906 3.34788 121.781 2.18121 118.745C-1.89691 108.125 -0.74066 105.021 9.80621 100.958C34.5718 91.4323 55.1708 75.5885 75.1031 58.6614C78.1239 56.0937 84.1135 51.1719 87.4104 48.4583C98.3323 51.3854 113.53 64.3489 113.53 64.3489Z" fill="#7CB518"/>
<path d="M59.4468 156.839C68.0562 152.427 81.3062 147.224 89.9468 142.37C96.9312 148.526 113.093 160.781 113.093 160.781C101.369 168.62 82.6812 180.281 69.6708 183.641C66.525 184.458 63.1864 183.234 61.1968 180.661C57.3948 175.734 55.1916 170.516 55.0041 164.302C54.9104 161.177 56.6656 158.266 59.4468 156.839Z" fill="#7CB518"/>
<mask id="mask2_14_23" style="mask-type:luminance" maskUnits="userSpaceOnUse" x="128" y="0" width="60" height="39">
<path d="M128.364 0H187.03V38.5625H128.364V0Z" fill="white"/>
</mask>
<g mask="url(#mask2_14_23)">
<path d="M129.254 19.5156C144.64 10.2083 161.952 3.21875 173.811 0.682296C177.067 -0.0156217 180.483 1.41146 182.27 4.22396C185.676 9.57813 187.093 14.9531 186.739 20.8385C186.567 23.7396 184.962 26.375 182.41 27.7656C174.973 31.8333 161.712 35 154.103 38.3229C154.103 38.3229 140.66 26.9948 129.254 19.5156Z" fill="#7CB518"/>
</g>
<path d="M220.78 96.3958C241.556 104.469 249.228 107.203 234.061 128.141C232.285 130.599 229.468 130.62 226.514 129.917C217.061 127.687 200.28 118.016 190.994 112.615C208.113 100.771 220.78 96.3958 220.78 96.3958Z" fill="#0FB1EA"/>
<path d="M23.9208 87.0156C18.7854 85.5468 9.02496 83.9999 4.551 81.276C2.53017 80.0468 1.17079 77.901 0.884335 75.5572C0.14996 69.6197 1.67079 64.2708 4.56663 58.8906C6.14996 55.9479 9.38434 54.2499 12.702 54.6145C22.6656 55.7239 40.6708 63.2552 50.4208 67.7083C36.301 80.7135 23.9208 87.0156 23.9208 87.0156Z" fill="#0FB1EA"/>
</svg>
