<svg width="519" height="211" viewBox="0 0 519 211" fill="none" xmlns="http://www.w3.org/2000/svg">
<mask id="mask0_5_201" style="mask-type:luminance" maskUnits="userSpaceOnUse" x="74" y="106" width="133" height="105">
<path d="M74.095 106.332H206.743V211H74.095V106.332Z" fill="white"/>
</mask>
<g mask="url(#mask0_5_201)">
<path d="M204.687 192.638C203.329 198.638 202.632 202.286 199.748 206.313C197.819 208.998 194.658 210.537 191.451 210.145C188.648 209.806 185.942 208.576 183.224 207.489C151.772 195.003 126.388 173.006 100.734 151.413C94.6197 146.268 81.7176 134.352 74.3886 128.097C92.2304 115.082 99.6112 107.033 99.6112 107.033C128.357 132.784 161.865 162.925 196.84 177.996C202.413 180.395 207.629 179.617 204.687 192.638Z" fill="#0FB1EA"/>
</g>
<mask id="mask1_5_201" style="mask-type:luminance" maskUnits="userSpaceOnUse" x="59" y="0" width="136" height="98">
<path d="M59.3564 0H194.952V97.2073H59.3564V0Z" fill="white"/>
</mask>
<g mask="url(#mask1_5_201)">
<path d="M169.136 95.8767C161.047 89.277 146.896 78.3231 138.899 71.961C118.599 55.8033 96.9456 42.3188 72.103 34.6321C58.6482 30.4679 56.8807 16.5141 67.0538 4.19388C68.9019 1.94844 71.7921 0.481179 74.5844 1.08115C120.844 11.0787 155.866 40.3288 194.854 77.2419C181.664 84.4357 169.142 95.8767 169.142 95.8767" fill="#0FB1EA"/>
</g>
<path d="M141.259 130.521C170.155 100.35 226.237 63.8999 254.534 62.5574C257.839 62.403 260.976 64.1079 262.715 67.0127C265.496 71.6758 266.4 77.2597 267.24 82.7545C268.035 88.0592 265.358 92.5857 260.481 93.9936C226.692 103.759 193.864 127.509 167.225 150.177C158.266 145.817 141.259 130.521 141.259 130.521Z" fill="#7CB518"/>
<path d="M125.496 73.3926C92.311 101.983 56.305 136.093 17.3743 148.306C14.0869 149.345 10.4598 148.49 8.09354 145.912C4.91553 142.461 3.70074 138.896 2.41111 135.433C-2.09684 123.321 -0.818724 119.781 10.8398 115.147C38.2156 104.282 60.9857 86.2118 83.0188 66.9058C86.358 63.9772 92.9789 58.3636 96.6232 55.2687C108.696 58.6071 125.496 73.3926 125.496 73.3926Z" fill="#7CB518"/>
<path d="M65.7124 178.881C75.2292 173.849 89.8757 167.915 99.427 162.379C107.148 169.4 125.012 183.378 125.012 183.378C112.053 192.318 91.3956 205.618 77.0139 209.45C73.5365 210.382 69.8461 208.986 67.6468 206.052C63.444 200.432 61.0087 194.48 60.8014 187.393C60.6978 183.829 62.638 180.508 65.7124 178.881Z" fill="#7CB518"/>
<mask id="mask2_5_201" style="mask-type:luminance" maskUnits="userSpaceOnUse" x="141" y="0" width="66" height="44">
<path d="M141.893 0H206.743V43.9821H141.893V0Z" fill="white"/>
</mask>
<g mask="url(#mask2_5_201)">
<path d="M142.877 22.2584C159.884 11.643 179.021 3.67112 192.131 0.778189C195.729 -0.0178144 199.506 1.60983 201.481 4.8176C205.246 10.9242 206.812 17.0547 206.42 23.7672C206.23 27.076 204.457 30.0818 201.636 31.6678C193.415 36.3072 178.757 39.9189 170.345 43.7088C170.345 43.7088 155.486 30.7887 142.877 22.2584Z" fill="#7CB518"/>
</g>
<path d="M244.05 109.943C267.016 119.151 275.496 122.269 258.731 146.15C256.768 148.953 253.653 148.977 250.389 148.175C239.939 145.633 221.389 134.602 211.124 128.441C230.048 114.933 244.05 109.943 244.05 109.943Z" fill="#0FB1EA"/>
<path d="M26.442 99.2448C20.7653 97.5696 9.97617 95.8053 5.03067 92.6985C2.79684 91.2966 1.29419 88.8492 0.977542 86.1761C0.165766 79.4041 1.84689 73.3034 5.04794 67.1671C6.79815 63.8108 10.3734 61.8743 14.0408 62.2901C25.0545 63.5554 44.9574 72.1451 55.735 77.224C40.127 92.057 26.442 99.2448 26.442 99.2448Z" fill="#0FB1EA"/>
<path d="M315.413 107.401H304.013V73.4698H293.719V63.8703H325.707V73.4698H315.413V107.401Z" fill="#094459"/>
<path d="M362.042 107.401H336.986V63.8703H362.042V73.3035H348.385V80.1467H361.028V89.58H348.385V97.8014H362.042V107.401Z" fill="#094459"/>
<path d="M412.706 107.401H399.51L391.289 93.7857L383.136 107.401H370.24L384.242 85.1128L371.069 63.8703H383.712L391.335 77.3191L398.681 63.8703H411.693L398.336 86.0395L412.706 107.401Z" fill="#094459"/>
<path d="M441.294 107.401H429.895V73.4698H419.601V63.8703H451.588V73.4698H441.294V107.401Z" fill="#094459"/>
<path d="M462.867 107.401V63.8703H474.336V107.401H462.867Z" fill="#094459"/>
<path d="M488.705 107.401V63.8703H500.105V97.8964H516.363V107.401H488.705Z" fill="#094459"/>
<path d="M322.477 147.771C322.477 150.48 321.809 152.88 320.473 154.971C319.149 157.062 317.238 158.696 314.739 159.866C312.235 161.018 309.304 161.6 305.942 161.6C303.132 161.6 300.772 161.398 298.872 161.006C296.966 160.596 294.986 159.884 292.93 158.868V148.389C295.095 149.53 297.352 150.427 299.701 151.074C302.05 151.728 304.203 152.048 306.172 152.048C307.859 152.048 309.097 151.751 309.88 151.145C310.674 150.528 311.077 149.743 311.077 148.793C311.077 148.193 310.916 147.67 310.594 147.225C310.283 146.785 309.776 146.334 309.074 145.87C308.366 145.413 306.495 144.48 303.455 143.067C300.703 141.783 298.642 140.542 297.26 139.336C295.89 138.118 294.871 136.722 294.197 135.154C293.535 133.586 293.207 131.732 293.207 129.594C293.207 125.572 294.617 122.442 297.444 120.208C300.282 117.963 304.174 116.834 309.12 116.834C313.495 116.834 317.946 117.88 322.477 119.971L318.999 129.047C315.05 127.182 311.642 126.244 308.774 126.244C307.283 126.244 306.201 126.517 305.527 127.051C304.865 127.592 304.537 128.257 304.537 129.047C304.537 129.903 304.957 130.675 305.804 131.352C306.662 132.018 308.987 133.247 312.781 135.035C316.42 136.734 318.942 138.546 320.358 140.477C321.769 142.413 322.477 144.843 322.477 147.771Z" fill="#094459"/>
<path d="M352.638 161.006L344.025 129.641H343.749C344.163 134.982 344.37 139.134 344.37 142.092V161.006H334.261V117.476H349.437L358.257 148.389H358.487L367.1 117.476H382.322V161.006H371.844V141.926C371.844 140.928 371.856 139.829 371.89 138.623C371.919 137.405 372.051 134.435 372.282 129.713H372.028L363.508 161.006H352.638Z" fill="#094459"/>
<path d="M422.548 161.006L420.475 152.856H406.773L404.631 161.006H392.104L405.875 117.286H421.074L435.03 161.006H422.548ZM418.103 143.185L416.284 136.057C415.87 134.459 415.351 132.398 414.741 129.879C414.142 127.36 413.739 125.555 413.544 124.462C413.371 125.477 413.037 127.147 412.53 129.475C412.024 131.792 410.895 136.36 409.145 143.185H418.103Z" fill="#094459"/>
<path d="M456.238 145.158V161.006H444.838V117.476H458.656C470.124 117.476 475.858 121.765 475.858 130.331C475.858 135.368 473.475 139.277 468.719 142.045L481.017 161.006H468.075L459.116 145.158H456.238ZM456.238 136.318H458.379C462.352 136.318 464.344 134.507 464.344 130.877C464.344 127.871 462.392 126.362 458.495 126.362H456.238V136.318Z" fill="#094459"/>
<path d="M508.706 161.006H497.307V127.075H487.013V117.476H519V127.075H508.706V161.006Z" fill="#094459"/>
</svg>
